<svg width="25" height="24" viewBox="0 0 25 24" fill="none" xmlns="http://www.w3.org/2000/svg">
<path d="M1.63873 6.69783H3.74918V20.57C3.74918 22.4617 5.28747 24 7.17921 24H18.4731C20.3648 24 21.9031 22.4617 21.9031 20.57V6.69783H23.8876C24.5032 6.69783 25 6.20101 25 5.58538C25 4.96976 24.5032 4.47294 23.8876 4.47294H18.6802V2.17709C18.6802 0.976279 17.7054 0 16.5031 0L9.15213 0.00144849C7.95132 0.00144849 6.97504 0.976281 6.97504 2.17853V4.47439H4.86459L1.63881 4.47294C1.02318 4.47294 0.526367 4.96976 0.526367 5.58538C0.526367 6.20101 1.02311 6.69783 1.63873 6.69783ZM9.2 2.22618H16.4568V4.47279H9.2V2.22618ZM8.08756 6.69783H19.6799V20.57C19.6799 21.2334 19.1382 21.7751 18.4748 21.7751H7.17944C6.51601 21.7751 5.97429 21.2334 5.97429 20.57V6.69783H8.08756Z" fill="white"/>
<path d="M15.0285 18.4901C15.6441 18.4901 16.1409 17.9933 16.1409 17.3776V10.8695C16.1409 10.2539 15.6441 9.75705 15.0285 9.75705C14.4128 9.75705 13.916 10.2539 13.916 10.8695V17.3776C13.916 17.9933 14.4128 18.4901 15.0285 18.4901Z" fill="white"/>
<path d="M10.4978 18.4901C11.1135 18.4901 11.6103 17.9933 11.6103 17.3776V10.8695C11.6103 10.2539 11.1135 9.75705 10.4978 9.75705C9.88222 9.75705 9.38541 10.2539 9.38541 10.8695V17.3776C9.38541 17.9933 9.88222 18.4901 10.4978 18.4901Z" fill="white"/>
</svg>
