<svg width="24" height="21" viewBox="0 0 24 21" fill="none" xmlns="http://www.w3.org/2000/svg">
<path d="M15.4821 0H8.94111C8.541 0 8.17184 0.216079 7.97676 0.565342L0.563763 13.8092C0.365369 14.1639 0.377526 14.5989 0.595263 14.9421L4.12105 20.4877C4.32442 20.8066 4.6759 21 5.0539 21H19.3687C19.7467 21 20.0987 20.8066 20.3016 20.4877L23.8273 14.9421C24.0456 14.5989 24.0578 14.1639 23.8588 13.8092L16.4464 0.565342C16.2508 0.216079 15.8822 0 15.4821 0ZM15.4776 1.10526L22.6011 13.8158H16.6934L10.0839 1.10526H15.4776ZM15.4445 13.8158H8.87921L12.1839 7.54895L15.4445 13.8158ZM1.52368 14.3518L8.89026 1.21026L11.565 6.35526L4.70684 19.3476L1.52368 14.3518ZM19.3682 19.8947H5.66842L8.29342 14.9211H22.5347L19.3682 19.8947Z" fill="white"/>
</svg>
