<svg width="100" height="100" viewBox="0 0 100 100" fill="none" xmlns="http://www.w3.org/2000/svg">
<rect width="100" height="100" rx="25" fill="black"/>
<path d="M31.7872 26.3353H69.8679C70.2709 26.3353 70.6345 26.5772 70.7902 26.9489L89.9163 72.6137C90.1923 73.2726 89.7084 74 88.994 74H11.1016C10.3749 74 9.89084 73.2494 10.1907 72.5874L30.8763 26.9226C31.0383 26.565 31.3945 26.3353 31.7872 26.3353Z" stroke="white" stroke-width="2" stroke-linejoin="round"/>
<path d="M31.5566 26.3353H70.0931C70.437 26.3353 70.7569 26.512 70.9398 26.8033L89.2283 55.9131C89.6467 56.5791 89.168 57.4451 88.3815 57.4451H11.777C10.9743 57.4451 10.4987 56.547 10.9498 55.8831L30.7294 26.7732C30.9156 26.4993 31.2253 26.3353 31.5566 26.3353Z" fill="black" stroke="white" stroke-width="2" stroke-linejoin="round"/>
<path d="M31.2179 26.2209H70.434C70.6802 26.2209 70.9177 26.3117 71.1011 26.4759L87.4349 41.1002C88.1187 41.7124 87.6856 42.8452 86.7679 42.8452H13.5523C12.6154 42.8452 12.1929 41.6724 12.9146 41.0749L30.5802 26.4506C30.7596 26.3022 30.9851 26.2209 31.2179 26.2209Z" fill="black" stroke="white" stroke-width="2" stroke-linejoin="round"/>
</svg>
