<svg width="330" height="209" viewBox="0 0 330 209" fill="none" xmlns="http://www.w3.org/2000/svg">
<line y1="104" x2="330" y2="104" stroke="white" stroke-width="2"/>
<path d="M2.27992 208L88.8217 114H247.818L327.835 208H2.27992Z" stroke="white" stroke-width="2"/>
<path d="M3.08602 176L88.7071 114H247.935L327.101 176H3.08602Z" fill="black" stroke="white" stroke-width="2"/>
<path d="M5.10602 147.779L88.5789 113.779H248.069L325.25 147.779H5.10602Z" fill="black" stroke="white" stroke-width="2"/>
<path d="M14.7981 124L88.4506 114H248.207L316.307 124H14.7981Z" fill="black" stroke="white" stroke-width="2"/>
<path d="M327.72 1.77905L241.178 95.7791L82.1821 95.7791L2.16451 1.77908L327.72 1.77905Z" stroke="white" stroke-width="2"/>
<path d="M326.914 33.7791L241.293 95.7791L82.065 95.7791L2.89874 33.7791L326.914 33.7791Z" fill="black" stroke="white" stroke-width="2"/>
<path d="M324.894 62L241.421 96L81.9305 96L4.75049 62L324.894 62Z" fill="black" stroke="white" stroke-width="2"/>
<path d="M315.202 85.7791L241.549 95.7791L81.7931 95.7791L13.6931 85.7791L315.202 85.7791Z" fill="black" stroke="white" stroke-width="2"/>
</svg>
