<svg width="19" height="19" viewBox="0 0 19 19" fill="none" xmlns="http://www.w3.org/2000/svg">
<path d="M13.8191 10.8431C13.784 10.8262 12.4718 10.1801 12.2386 10.0961C12.1434 10.0619 12.0414 10.0286 11.9329 10.0286C11.7557 10.0286 11.6069 10.1169 11.4909 10.2903C11.3599 10.4852 10.963 10.949 10.8404 11.0876C10.8244 11.1059 10.8026 11.1277 10.7895 11.1277C10.7777 11.1277 10.5746 11.0441 10.5132 11.0174C9.10548 10.4059 8.03699 8.93549 7.89048 8.68752C7.86956 8.65187 7.86868 8.63568 7.86851 8.63568C7.87365 8.6168 7.92099 8.56935 7.94541 8.54486C8.01689 8.47415 8.09432 8.38093 8.16925 8.29076C8.20472 8.24804 8.24025 8.20526 8.27514 8.16493C8.38384 8.03847 8.43223 7.94028 8.48834 7.82656L8.51773 7.76747C8.65472 7.49531 8.53772 7.26564 8.49991 7.19147C8.46887 7.12941 7.91479 5.79215 7.85588 5.65166C7.71422 5.31264 7.52703 5.15479 7.26691 5.15479C7.24277 5.15479 7.26691 5.15479 7.16569 5.15905C7.04243 5.16425 6.37123 5.25262 6.07447 5.43969C5.75976 5.6381 5.22736 6.27055 5.22736 7.38281C5.22736 8.38386 5.86262 9.32903 6.13536 9.68851C6.14214 9.69756 6.15459 9.71597 6.17265 9.74239C7.21717 11.2678 8.51931 12.3983 9.83933 12.9256C11.1101 13.4333 11.7119 13.4919 12.054 13.4919H12.0541C12.1979 13.4919 12.3129 13.4807 12.4144 13.4707L12.4788 13.4645C12.9179 13.4256 13.8826 12.9257 14.1021 12.3159C14.2749 11.8355 14.3205 11.3107 14.2055 11.1203C14.1267 10.9908 13.991 10.9256 13.8191 10.8431Z" fill="black"/>
<path d="M9.65977 0.5C4.7848 0.5 0.818727 4.43627 0.818727 9.27459C0.818727 10.8395 1.23752 12.3713 2.03086 13.7119L0.512376 18.1912C0.48409 18.2747 0.505129 18.367 0.566902 18.4299C0.611493 18.4755 0.67198 18.5 0.733753 18.5C0.757421 18.5 0.781266 18.4964 0.804525 18.489L5.47517 17.0048C6.75329 17.6877 8.19785 18.0482 9.65982 18.0482C14.5343 18.0482 18.5 14.1124 18.5 9.27459C18.5 4.43627 14.5343 0.5 9.65977 0.5ZM9.65977 16.2204C8.28411 16.2204 6.9517 15.8232 5.80636 15.0716C5.76785 15.0463 5.72314 15.0334 5.67814 15.0334C5.65436 15.0334 5.63051 15.037 5.60731 15.0443L3.2676 15.7881L4.0229 13.5598C4.04733 13.4876 4.03512 13.4081 3.99012 13.3466C3.11793 12.1549 2.65689 10.7469 2.65689 9.27459C2.65689 5.44416 5.79836 2.32782 9.65971 2.32782C13.5206 2.32782 16.6617 5.44416 16.6617 9.27459C16.6618 13.1046 13.5207 16.2204 9.65977 16.2204Z" fill="black"/>
</svg>
