<svg width="21" height="22" viewBox="0 0 21 22" fill="none" xmlns="http://www.w3.org/2000/svg">
<path d="M15.5389 12.5669C15.498 12.5473 13.9671 11.7934 13.695 11.6955C13.584 11.6556 13.465 11.6167 13.3384 11.6167C13.1317 11.6167 12.9581 11.7197 12.8228 11.922C12.6698 12.1494 12.2069 12.6905 12.0639 12.8522C12.0452 12.8735 12.0197 12.899 12.0044 12.899C11.9907 12.899 11.7538 12.8015 11.682 12.7703C10.0397 12.0569 8.79317 10.3414 8.62224 10.0521C8.59783 10.0105 8.5968 9.99162 8.5966 9.99162C8.6026 9.9696 8.65783 9.91423 8.68633 9.88566C8.76971 9.80316 8.86005 9.69441 8.94746 9.58921C8.98885 9.53937 9.0303 9.48946 9.07101 9.44241C9.19783 9.29487 9.25428 9.18032 9.31974 9.04764L9.35403 8.97871C9.51385 8.66119 9.37735 8.39323 9.33324 8.30671C9.29703 8.2343 8.6506 6.67416 8.58187 6.51025C8.4166 6.11473 8.19821 5.93057 7.89474 5.93057C7.86658 5.93057 7.89474 5.93057 7.77665 5.93555C7.63285 5.94162 6.84978 6.04471 6.50355 6.26296C6.1364 6.49444 5.51526 7.2323 5.51526 8.52994C5.51526 9.69782 6.2564 10.8005 6.5746 11.2199C6.58251 11.2305 6.59703 11.252 6.6181 11.2828C7.83671 13.0625 9.35587 14.3814 10.8959 14.9966C12.3785 15.5888 13.0806 15.6573 13.4797 15.6573H13.4798C13.6475 15.6573 13.7818 15.6441 13.9002 15.6324L13.9753 15.6253C14.4875 15.5799 15.6131 14.9966 15.8691 14.2852C16.0708 13.7248 16.1239 13.1125 15.9898 12.8903C15.8979 12.7392 15.7395 12.6632 15.5389 12.5669Z" fill="black"/>
<path d="M10.6864 0.5C4.99894 0.5 0.371848 5.09232 0.371848 10.737C0.371848 12.5627 0.860439 14.3498 1.78601 15.9139L0.0144387 21.1397C-0.0185613 21.2372 0.00598416 21.3449 0.0780523 21.4183C0.130075 21.4714 0.200643 21.5 0.272711 21.5C0.300325 21.5 0.328143 21.4958 0.35528 21.4872L5.80437 19.7556C7.29551 20.5523 8.98083 20.9729 10.6865 20.9729C16.3734 20.973 21 16.3811 21 10.737C21 5.09232 16.3734 0.5 10.6864 0.5ZM10.6864 18.8405C9.08146 18.8405 7.52698 18.3771 6.19076 17.5003C6.14583 17.4707 6.09367 17.4556 6.04117 17.4556C6.01342 17.4556 5.9856 17.4598 5.95853 17.4684L3.22887 18.3361L4.11005 15.7364C4.13855 15.6523 4.1243 15.5595 4.0718 15.4877C3.05426 14.0974 2.51637 12.4547 2.51637 10.737C2.51637 6.26818 6.18142 2.63245 10.6863 2.63245C15.1907 2.63245 18.8553 6.26818 18.8553 10.737C18.8554 15.2053 15.1908 18.8405 10.6864 18.8405Z" fill="black"/>
</svg>
