<svg width="24" height="24" viewBox="0 0 24 24" fill="none" xmlns="http://www.w3.org/2000/svg">
<path d="M17.7588 13.7908C17.712 13.7683 15.9624 12.9068 15.6515 12.7949C15.5245 12.7493 15.3886 12.7048 15.2439 12.7048C15.0077 12.7048 14.8092 12.8225 14.6546 13.0538C14.4798 13.3136 13.9507 13.9321 13.7873 14.1168C13.7659 14.1412 13.7368 14.1703 13.7193 14.1703C13.7037 14.1703 13.4329 14.0588 13.3509 14.0232C11.474 13.2079 10.0493 11.2473 9.85399 10.9167C9.8261 10.8692 9.82493 10.8476 9.82469 10.8476C9.83155 10.8224 9.89467 10.7591 9.92724 10.7265C10.0225 10.6322 10.1258 10.5079 10.2257 10.3877C10.273 10.3307 10.3204 10.2737 10.3669 10.2199C10.5118 10.0513 10.5763 9.92039 10.6511 9.76875L10.6903 9.68997C10.873 9.32709 10.717 9.02086 10.6666 8.92197C10.6252 8.83922 9.88641 7.05621 9.80786 6.86888C9.61898 6.41686 9.3694 6.20639 9.02256 6.20639C8.99038 6.20639 9.02256 6.20639 8.8876 6.21208C8.72327 6.21901 7.82833 6.33683 7.43264 6.58626C7.01303 6.85081 6.30316 7.69408 6.30316 9.17709C6.30316 10.5118 7.15017 11.7721 7.51384 12.2514C7.52288 12.2634 7.53947 12.288 7.56355 12.3232C8.95625 14.3571 10.6924 15.8644 12.4525 16.5675C14.1469 17.2444 14.9492 17.3226 15.4054 17.3226H15.4055C15.5972 17.3226 15.7506 17.3076 15.8859 17.2942L15.9718 17.2861C16.5572 17.2342 17.8435 16.5676 18.1361 15.7545C18.3666 15.1141 18.4274 14.4143 18.274 14.1604C18.169 13.9877 17.988 13.9008 17.7588 13.7908Z" fill="white"/>
<path d="M12.213 0C5.7131 0 0.424999 5.24836 0.424999 11.6995C0.424999 13.786 0.983389 15.8284 2.04118 17.6159L0.0165319 23.5883C-0.0211824 23.6996 0.00686956 23.8227 0.0892332 23.9066C0.148688 23.9673 0.229337 24 0.311701 24C0.343259 24 0.375051 23.9952 0.406064 23.9854L6.6336 22.0064C8.33775 22.917 10.2638 23.3976 12.2131 23.3976C18.7125 23.3977 24 18.1498 24 11.6995C24 5.24836 18.7125 0 12.213 0ZM12.213 20.9606C10.3788 20.9606 8.6023 20.4309 7.07518 19.4289C7.02383 19.3951 6.96422 19.3778 6.90422 19.3778C6.87251 19.3778 6.84071 19.3826 6.80978 19.3925L3.69017 20.3841L4.69723 17.413C4.7298 17.3169 4.71352 17.2108 4.65352 17.1288C3.49061 15.5398 2.87588 13.6625 2.87588 11.6995C2.87588 6.59221 7.06451 2.43709 12.213 2.43709C17.3608 2.43709 21.549 6.59221 21.549 11.6995C21.549 16.8061 17.361 20.9606 12.213 20.9606Z" fill="white"/>
</svg>
