<svg width="24" height="25" viewBox="0 0 24 25" fill="none" xmlns="http://www.w3.org/2000/svg">
<path d="M17.7588 14.2908C17.712 14.2683 15.9624 13.4068 15.6514 13.2949C15.5245 13.2493 15.3885 13.2048 15.2439 13.2048C15.0077 13.2048 14.8092 13.3225 14.6546 13.5538C14.4798 13.8136 13.9507 14.4321 13.7872 14.6168C13.7659 14.6412 13.7367 14.6703 13.7193 14.6703C13.7036 14.6703 13.4328 14.5588 13.3509 14.5232C11.474 13.7079 10.0493 11.7473 9.85396 11.4167C9.82607 11.3692 9.8249 11.3476 9.82466 11.3476C9.83152 11.3224 9.89464 11.2591 9.92721 11.2265C10.0225 11.1322 10.1258 11.0079 10.2257 10.8877C10.2729 10.8307 10.3203 10.7737 10.3668 10.7199C10.5118 10.5513 10.5763 10.4204 10.6511 10.2688L10.6903 10.19C10.8729 9.82709 10.7169 9.52086 10.6665 9.42197C10.6252 9.33922 9.88638 7.55621 9.80783 7.36888C9.61895 6.91686 9.36936 6.70639 9.02253 6.70639C8.99035 6.70639 9.02253 6.70639 8.88757 6.71208C8.72323 6.71901 7.8283 6.83683 7.43261 7.08626C7.013 7.35081 6.30313 8.19408 6.30313 9.67709C6.30313 11.0118 7.15014 12.2721 7.51381 12.7514C7.52285 12.7634 7.53944 12.788 7.56352 12.8232C8.95622 14.8571 10.6924 16.3644 12.4524 17.0675C14.1468 17.7444 14.9492 17.8226 15.4054 17.8226H15.4054C15.5971 17.8226 15.7506 17.8076 15.8859 17.7942L15.9718 17.7861C16.5571 17.7342 17.8435 17.0676 18.1361 16.2545C18.3666 15.6141 18.4273 14.9143 18.274 14.6604C18.1689 14.4877 17.9879 14.4008 17.7588 14.2908Z" fill="white"/>
<path d="M12.213 0.5C5.71307 0.5 0.424969 5.74836 0.424969 12.1995C0.424969 14.286 0.983358 16.3284 2.04115 18.1159L0.0165014 24.0883C-0.0212129 24.1996 0.00683904 24.3227 0.0892027 24.4066C0.148657 24.4673 0.229307 24.5 0.31167 24.5C0.343229 24.5 0.375021 24.4952 0.406034 24.4854L6.63357 22.5064C8.33772 23.417 10.2638 23.8976 12.2131 23.8976C18.7124 23.8977 24 18.6498 24 12.1995C24 5.74836 18.7124 0.5 12.213 0.5ZM12.213 21.4606C10.3788 21.4606 8.60227 20.9309 7.07515 19.9289C7.0238 19.8951 6.96419 19.8778 6.90419 19.8778C6.87247 19.8778 6.84068 19.8826 6.80975 19.8925L3.69014 20.8841L4.6972 17.913C4.72977 17.8169 4.71349 17.7108 4.65349 17.6288C3.49058 16.0398 2.87585 14.1625 2.87585 12.1995C2.87585 7.09221 7.06448 2.93709 12.2129 2.93709C17.3608 2.93709 21.5489 7.09221 21.5489 12.1995C21.549 17.3061 17.3609 21.4606 12.213 21.4606Z" fill="white"/>
</svg>
